<svg width="60" height="60" viewBox="0 0 60 60" fill="none" xmlns="http://www.w3.org/2000/svg">
<path d="M36.5625 17.8125C36.8111 17.8125 37.0496 17.7137 37.2254 17.5379C37.4012 17.3621 37.5 17.1236 37.5 16.875V10.3125C37.5 10.0639 37.4012 9.8254 37.2254 9.64959C37.0496 9.47377 36.8111 9.375 36.5625 9.375H6.5625C6.31386 9.375 6.0754 9.47377 5.89959 9.64959C5.72377 9.8254 5.625 10.0639 5.625 10.3125V30.9375C5.625 31.1861 5.72377 31.4246 5.89959 31.6004C6.0754 31.7762 6.31386 31.875 6.5625 31.875H36.5625C36.8111 31.875 37.0496 31.7762 37.2254 31.6004C37.4012 31.4246 37.5 31.1861 37.5 30.9375V20.625C37.5 20.3764 37.4012 20.1379 37.2254 19.9621C37.0496 19.7863 36.8111 19.6875 36.5625 19.6875C36.3139 19.6875 36.0754 19.7863 35.8996 19.9621C35.7238 20.1379 35.625 20.3764 35.625 20.625V30H22.5V26.25C22.4979 25.402 22.2085 24.5798 21.679 23.9174C21.1495 23.2551 20.4111 22.7918 19.5844 22.6031C20.1403 21.9148 20.49 21.0831 20.5931 20.2044C20.6962 19.3256 20.5485 18.4356 20.167 17.6372C19.7855 16.8389 19.1859 16.1648 18.4375 15.6929C17.689 15.2211 16.8223 14.9706 15.9375 14.9706C15.0527 14.9706 14.186 15.2211 13.4375 15.6929C12.6891 16.1648 12.0895 16.8389 11.708 17.6372C11.3265 18.4356 11.1788 19.3256 11.2819 20.2044C11.385 21.0831 11.7347 21.9148 12.2906 22.6031C11.4639 22.7918 10.7255 23.2551 10.196 23.9174C9.66647 24.5798 9.37706 25.402 9.375 26.25V30H7.5V11.25H35.625V16.875C35.625 17.1236 35.7238 17.3621 35.8996 17.5379C36.0754 17.7137 36.3139 17.8125 36.5625 17.8125ZM15.9375 16.875C16.4938 16.875 17.0375 17.0399 17.5 17.349C17.9626 17.658 18.323 18.0973 18.5359 18.6112C18.7488 19.1251 18.8045 19.6906 18.696 20.2362C18.5874 20.7818 18.3196 21.2829 17.9262 21.6762C17.5329 22.0696 17.0318 22.3374 16.4862 22.446C15.9406 22.5545 15.3751 22.4988 14.8612 22.2859C14.3473 22.073 13.908 21.7126 13.599 21.25C13.29 20.7875 13.125 20.2438 13.125 19.6875C13.125 18.9416 13.4213 18.2262 13.9488 17.6988C14.4762 17.1713 15.1916 16.875 15.9375 16.875ZM11.25 26.25C11.25 25.7527 11.4475 25.2758 11.7992 24.9242C12.1508 24.5725 12.6277 24.375 13.125 24.375H18.75C19.2473 24.375 19.7242 24.5725 20.0758 24.9242C20.4275 25.2758 20.625 25.7527 20.625 26.25V30H11.25V26.25Z" fill="black"/>
<path d="M40.3125 18.75H47.8125C48.0611 18.75 48.2996 18.6512 48.4754 18.4754C48.6512 18.2996 48.75 18.0611 48.75 17.8125V10.3125C48.75 10.0639 48.6512 9.8254 48.4754 9.64959C48.2996 9.47377 48.0611 9.375 47.8125 9.375H40.3125C40.0639 9.375 39.8254 9.47377 39.6496 9.64959C39.4738 9.8254 39.375 10.0639 39.375 10.3125V17.8125C39.375 18.0611 39.4738 18.2996 39.6496 18.4754C39.8254 18.6512 40.0639 18.75 40.3125 18.75ZM41.25 11.25H46.875V16.875H41.25V11.25Z" fill="black"/>
<path d="M51.5625 13.125H53.4375C53.6861 13.125 53.9246 13.0262 54.1004 12.8504C54.2762 12.6746 54.375 12.4361 54.375 12.1875C54.375 11.9389 54.2762 11.7004 54.1004 11.5246C53.9246 11.3488 53.6861 11.25 53.4375 11.25H51.5625C51.3139 11.25 51.0754 11.3488 50.8996 11.5246C50.7238 11.7004 50.625 11.9389 50.625 12.1875C50.625 12.4361 50.7238 12.6746 50.8996 12.8504C51.0754 13.0262 51.3139 13.125 51.5625 13.125Z" fill="black"/>
<path d="M51.5625 16.875H53.4375C53.6861 16.875 53.9246 16.7762 54.1004 16.6004C54.2762 16.4246 54.375 16.1861 54.375 15.9375C54.375 15.6889 54.2762 15.4504 54.1004 15.2746C53.9246 15.0988 53.6861 15 53.4375 15H51.5625C51.3139 15 51.0754 15.0988 50.8996 15.2746C50.7238 15.4504 50.625 15.6889 50.625 15.9375C50.625 16.1861 50.7238 16.4246 50.8996 16.6004C51.0754 16.7762 51.3139 16.875 51.5625 16.875Z" fill="black"/>
<path d="M39.375 29.0625C39.375 29.3111 39.4738 29.5496 39.6496 29.7254C39.8254 29.9012 40.0639 30 40.3125 30H47.8125C48.0611 30 48.2996 29.9012 48.4754 29.7254C48.6512 29.5496 48.75 29.3111 48.75 29.0625C48.75 28.8139 48.6512 28.5754 48.4754 28.3996C48.2996 28.2238 48.0611 28.125 47.8125 28.125H41.25V22.5H46.875V25.3125C46.875 25.5611 46.9738 25.7996 47.1496 25.9754C47.3254 26.1512 47.5639 26.25 47.8125 26.25C48.0611 26.25 48.2996 26.1512 48.4754 25.9754C48.6512 25.7996 48.75 25.5611 48.75 25.3125V21.5625C48.75 21.3139 48.6512 21.0754 48.4754 20.8996C48.2996 20.7238 48.0611 20.625 47.8125 20.625H40.3125C40.0639 20.625 39.8254 20.7238 39.6496 20.8996C39.4738 21.0754 39.375 21.3139 39.375 21.5625V29.0625Z" fill="black"/>
<path d="M51.5625 24.375H53.4375C53.6861 24.375 53.9246 24.2762 54.1004 24.1004C54.2762 23.9246 54.375 23.6861 54.375 23.4375C54.375 23.1889 54.2762 22.9504 54.1004 22.7746C53.9246 22.5988 53.6861 22.5 53.4375 22.5H51.5625C51.3139 22.5 51.0754 22.5988 50.8996 22.7746C50.7238 22.9504 50.625 23.1889 50.625 23.4375C50.625 23.6861 50.7238 23.9246 50.8996 24.1004C51.0754 24.2762 51.3139 24.375 51.5625 24.375Z" fill="black"/>
<path d="M51.5625 28.125H53.4375C53.6861 28.125 53.9246 28.0262 54.1004 27.8504C54.2762 27.6746 54.375 27.4361 54.375 27.1875C54.375 26.9389 54.2762 26.7004 54.1004 26.5246C53.9246 26.3488 53.6861 26.25 53.4375 26.25H51.5625C51.3139 26.25 51.0754 26.3488 50.8996 26.5246C50.7238 26.7004 50.625 26.9389 50.625 27.1875C50.625 27.4361 50.7238 27.6746 50.8996 27.8504C51.0754 28.0262 51.3139 28.125 51.5625 28.125Z" fill="black"/>
<path d="M39.375 40.3125C39.375 40.5611 39.4738 40.7996 39.6496 40.9754C39.8254 41.1512 40.0639 41.25 40.3125 41.25H47.8125C48.0611 41.25 48.2996 41.1512 48.4754 40.9754C48.6512 40.7996 48.75 40.5611 48.75 40.3125V32.8125C48.75 32.5639 48.6512 32.3254 48.4754 32.1496C48.2996 31.9738 48.0611 31.875 47.8125 31.875H40.3125C40.0639 31.875 39.8254 31.9738 39.6496 32.1496C39.4738 32.3254 39.375 32.5639 39.375 32.8125V40.3125ZM41.25 33.75H46.875V39.375H41.25V33.75Z" fill="black"/>
<path d="M51.5625 35.625H53.4375C53.6861 35.625 53.9246 35.5262 54.1004 35.3504C54.2762 35.1746 54.375 34.9361 54.375 34.6875C54.375 34.4389 54.2762 34.2004 54.1004 34.0246C53.9246 33.8488 53.6861 33.75 53.4375 33.75H51.5625C51.3139 33.75 51.0754 33.8488 50.8996 34.0246C50.7238 34.2004 50.625 34.4389 50.625 34.6875C50.625 34.9361 50.7238 35.1746 50.8996 35.3504C51.0754 35.5262 51.3139 35.625 51.5625 35.625Z" fill="black"/>
<path d="M51.5625 39.375H53.4375C53.6861 39.375 53.9246 39.2762 54.1004 39.1004C54.2762 38.9246 54.375 38.6861 54.375 38.4375C54.375 38.1889 54.2762 37.9504 54.1004 37.7746C53.9246 37.5988 53.6861 37.5 53.4375 37.5H51.5625C51.3139 37.5 51.0754 37.5988 50.8996 37.7746C50.7238 37.9504 50.625 38.1889 50.625 38.4375C50.625 38.6861 50.7238 38.9246 50.8996 39.1004C51.0754 39.2762 51.3139 39.375 51.5625 39.375Z" fill="black"/>
<path d="M27.1875 35.625C27.4361 35.625 27.6746 35.5262 27.8504 35.3504C28.0262 35.1746 28.125 34.9361 28.125 34.6875C28.125 34.4389 28.0262 34.2004 27.8504 34.0246C27.6746 33.8488 27.4361 33.75 27.1875 33.75H11.25C11.0014 33.75 10.7629 33.8488 10.5871 34.0246C10.4113 34.2004 10.3125 34.4389 10.3125 34.6875C10.3125 34.9361 10.4113 35.1746 10.5871 35.3504C10.7629 35.5262 11.0014 35.625 11.25 35.625H27.1875Z" fill="black"/>
<path d="M6.5625 38.4375C6.5625 38.6861 6.66127 38.9246 6.83709 39.1004C7.0129 39.2762 7.25136 39.375 7.5 39.375H18.75C18.9986 39.375 19.2371 39.2762 19.4129 39.1004C19.5887 38.9246 19.6875 38.6861 19.6875 38.4375C19.6875 38.1889 19.5887 37.9504 19.4129 37.7746C19.2371 37.5988 18.9986 37.5 18.75 37.5H7.5C7.25136 37.5 7.0129 37.5988 6.83709 37.7746C6.66127 37.9504 6.5625 38.1889 6.5625 38.4375Z" fill="black"/>
<path d="M7.5 43.125H30.9375C31.1861 43.125 31.4246 43.0262 31.6004 42.8504C31.7762 42.6746 31.875 42.4361 31.875 42.1875C31.875 41.9389 31.7762 41.7004 31.6004 41.5246C31.4246 41.3488 31.1861 41.25 30.9375 41.25H7.5C7.25136 41.25 7.0129 41.3488 6.83709 41.5246C6.66127 41.7004 6.5625 41.9389 6.5625 42.1875C6.5625 42.4361 6.66127 42.6746 6.83709 42.8504C7.0129 43.0262 7.25136 43.125 7.5 43.125Z" fill="black"/>
<path d="M30 20.6251C29.9995 20.452 29.951 20.2824 29.86 20.1351C29.769 19.9878 29.639 19.8686 29.4844 19.7907L23.8594 16.9782C23.7167 16.9063 23.5579 16.8721 23.3983 16.8788C23.2386 16.8854 23.0833 16.9328 22.9471 17.0164C22.8109 17.1 22.6983 17.2171 22.6201 17.3564C22.5418 17.4957 22.5005 17.6528 22.5 17.8126V23.4376C22.4997 23.5969 22.54 23.7537 22.6171 23.8931C22.6942 24.0325 22.8055 24.15 22.9406 24.2345C23.0898 24.3269 23.262 24.3757 23.4375 24.3751C23.5843 24.3742 23.7288 24.3389 23.8594 24.272L29.4844 21.4595C29.639 21.3816 29.769 21.2624 29.86 21.1151C29.951 20.9678 29.9995 20.7982 30 20.6251ZM24.375 21.9188V19.3313L26.9625 20.6251L24.375 21.9188Z" fill="black"/>
<path d="M25.3125 28.125H32.8125C33.0611 28.125 33.2996 28.0262 33.4754 27.8504C33.6512 27.6746 33.75 27.4361 33.75 27.1875V14.0625C33.75 13.8139 33.6512 13.5754 33.4754 13.3996C33.2996 13.2238 33.0611 13.125 32.8125 13.125H20.625C20.3764 13.125 20.1379 13.2238 19.9621 13.3996C19.7863 13.5754 19.6875 13.8139 19.6875 14.0625C19.6875 14.3111 19.7863 14.5496 19.9621 14.7254C20.1379 14.9012 20.3764 15 20.625 15H31.875V26.25H25.3125C25.0639 26.25 24.8254 26.3488 24.6496 26.5246C24.4738 26.7004 24.375 26.9389 24.375 27.1875C24.375 27.4361 24.4738 27.6746 24.6496 27.8504C24.8254 28.0262 25.0639 28.125 25.3125 28.125Z" fill="black"/>
<path d="M57.1875 37.5C56.9389 37.5 56.7004 37.5988 56.5246 37.7746C56.3488 37.9504 56.25 38.1889 56.25 38.4375V44.0625C56.25 44.3111 56.1512 44.5496 55.9754 44.7254C55.7996 44.9012 55.5611 45 55.3125 45H4.6875C4.43886 45 4.2004 44.9012 4.02459 44.7254C3.84877 44.5496 3.75 44.3111 3.75 44.0625V19.6875C3.75 19.4389 3.65123 19.2004 3.47541 19.0246C3.2996 18.8488 3.06114 18.75 2.8125 18.75C2.56386 18.75 2.3254 18.8488 2.14959 19.0246C1.97377 19.2004 1.875 19.4389 1.875 19.6875V44.0625C1.875 44.8084 2.17132 45.5238 2.69876 46.0512C3.22621 46.5787 3.94158 46.875 4.6875 46.875H21.9187L19.1062 52.5H13.125C12.8764 52.5 12.6379 52.5988 12.4621 52.7746C12.2863 52.9504 12.1875 53.1889 12.1875 53.4375C12.1875 53.6861 12.2863 53.9246 12.4621 54.1004C12.6379 54.2762 12.8764 54.375 13.125 54.375H46.875C47.1236 54.375 47.3621 54.4738 47.5379 54.6496C47.7137 54.8254 47.8125 55.0639 47.8125 55.3125V56.25H11.25C11.0014 56.25 10.7629 56.3488 10.5871 56.5246C10.4113 56.7004 10.3125 56.9389 10.3125 57.1875C10.3125 57.4361 10.4113 57.6746 10.5871 57.8504C10.7629 58.0262 11.0014 58.125 11.25 58.125H48.75C48.9986 58.125 49.2371 58.0262 49.4129 57.8504C49.5887 57.6746 49.6875 57.4361 49.6875 57.1875V55.3125C49.6875 54.5666 49.3912 53.8512 48.8637 53.3238C48.3363 52.7963 47.6209 52.5 46.875 52.5H40.8937L38.0812 46.875H55.3125C56.0584 46.875 56.7738 46.5787 57.3012 46.0512C57.8287 45.5238 58.125 44.8084 58.125 44.0625V38.4375C58.125 38.1889 58.0262 37.9504 57.8504 37.7746C57.6746 37.5988 57.4361 37.5 57.1875 37.5ZM38.7938 52.5H21.2063L24.0188 46.875H35.9813L38.7938 52.5Z" fill="black"/>
<path d="M55.3125 5.625H4.6875C3.94158 5.625 3.22621 5.92132 2.69876 6.44876C2.17132 6.97621 1.875 7.69158 1.875 8.4375V15.9375C1.875 16.1861 1.97377 16.4246 2.14959 16.6004C2.3254 16.7762 2.56386 16.875 2.8125 16.875C3.06114 16.875 3.2996 16.7762 3.47541 16.6004C3.65123 16.4246 3.75 16.1861 3.75 15.9375V8.4375C3.75 8.18886 3.84877 7.9504 4.02459 7.77459C4.2004 7.59877 4.43886 7.5 4.6875 7.5H55.3125C55.5611 7.5 55.7996 7.59877 55.9754 7.77459C56.1512 7.9504 56.25 8.18886 56.25 8.4375V34.6875C56.25 34.9361 56.3488 35.1746 56.5246 35.3504C56.7004 35.5262 56.9389 35.625 57.1875 35.625C57.4361 35.625 57.6746 35.5262 57.8504 35.3504C58.0262 35.1746 58.125 34.9361 58.125 34.6875V8.4375C58.125 7.69158 57.8287 6.97621 57.3012 6.44876C56.7738 5.92132 56.0584 5.625 55.3125 5.625Z" fill="black"/>
</svg>
