<svg width="25" height="24" viewBox="0 0 25 24" fill="none" xmlns="http://www.w3.org/2000/svg">
<path opacity="0.4" d="M15.3743 5.48976C14.8983 5.40182 14.4611 5.70561 14.3704 6.17029C14.2798 6.63497 14.5846 7.08866 15.0477 7.1796C16.4419 7.45141 17.5185 8.53067 17.7914 9.92971V9.93071C17.8691 10.3334 18.2236 10.6262 18.6319 10.6262C18.6867 10.6262 18.7415 10.6212 18.7972 10.6112C19.2603 10.5183 19.5651 10.0656 19.4744 9.59994C19.0671 7.51037 17.4587 5.89648 15.3743 5.48976Z" fill="white"/>
<path opacity="0.4" d="M15.3119 2.00793C15.0888 1.97595 14.8647 2.04191 14.6865 2.18381C14.5032 2.32771 14.3887 2.53557 14.3638 2.76841C14.311 3.23908 14.6506 3.66479 15.1207 3.71776C18.3624 4.07951 20.882 6.60477 21.2465 9.85654C21.2953 10.2922 21.6608 10.621 22.097 10.621C22.1298 10.621 22.1617 10.619 22.1946 10.615C22.4226 10.59 22.6258 10.4771 22.7692 10.2972C22.9116 10.1174 22.9764 9.89351 22.9505 9.66467C22.4963 5.60746 19.3563 2.45862 15.3119 2.00793Z" fill="white"/>
<path fill-rule="evenodd" clip-rule="evenodd" d="M11.9878 12.9724C15.9769 16.9604 16.8818 12.3467 19.4217 14.8848C21.8703 17.3328 23.2777 17.8232 20.1753 20.9247C19.7867 21.237 17.3177 24.9943 8.64066 16.3197C-0.0374236 7.644 3.71764 5.17244 4.03002 4.78395C7.13992 1.67385 7.62192 3.08938 10.0705 5.53733C12.6104 8.0765 7.99871 8.98441 11.9878 12.9724Z" fill="white"/>
</svg>
