<svg xmlns="http://www.w3.org/2000/svg" xmlns:xlink="http://www.w3.org/1999/xlink" xmlns:xodm="http://www.corel.com/coreldraw/odm/2003" xml:space="preserve" width="6.75in" height="1.40278in" version="1.1" style="shape-rendering:geometricPrecision; text-rendering:geometricPrecision; image-rendering:optimizeQuality; fill-rule:evenodd; clip-rule:evenodd" viewBox="0 0 6806.01 1414.42">
 <defs>
  <style type="text/css">
   <![CDATA[
    .fil2 {fill:#6F56A4}
    .fil1 {fill:#DE354B}
    .fil0 {fill:white;fill-rule:nonzero}
   ]]>
  </style>
 </defs>
 <g id="Слой_x0020_1">
  <metadata id="CorelCorpID_0Corel-Layer"/>
  <g id="_1379349736">
   <path class="fil0" d="M1778.52 1134.34c-28.01,0 -56.02,28.01 -70.02,42.02 0,-14.01 -28.01,-42.02 -56.02,-42.02 -28.01,0 -56.02,14.01 -70.02,42.02l0 -28.01 -28.01 0 0 196.06 28.01 0 0 -126.04c0,-28.01 28.01,-56.02 56.02,-56.02 28.01,0 56.02,28.01 56.02,56.02l0 126.04 28.01 0 0 -126.04c0,-28.01 28.01,-56.02 56.02,-56.02 28.01,0 42.02,28.01 42.02,56.02l0 126.04 28.01 0 0 -126.04c0,-42.01 -28.01,-84.03 -70.02,-84.03zm224.07 0c-28.01,0 -56.02,14.01 -84.03,28.01l14.01 28.01c28.01,-14 42.01,-28.01 56.02,-28.01 56.02,0 56.02,28.01 56.02,56.02l0 14.01c-14.01,0 -42.01,-14.01 -56.02,-14.01 -42.01,0 -84.03,28.01 -84.03,70.02 0,42.01 28.01,70.02 70.02,70.02 28.01,0 56.02,-14.01 70.02,-42.02l0 28.01 42.01 0 0 -126.04c0,-42.01 -28.01,-84.03 -84.02,-84.03zm-14.01 196.06c-28.01,0 -56.02,-14.01 -56.02,-42.01 0,-28.01 28.01,-42.02 56.02,-42.02 28.01,0 42.01,0 56.02,14.01l0 28.01c0,28.01 -28.01,42.01 -56.02,42.01zm336.1 -182.05l-42.02 0 -112.03 112.03 0 -182.05 -28.01 0 0 266.08 28.01 0 0 -56.02 42.01 -28.01 70.02 84.03 28.01 0 -84.03 -112.03 98.03 -84.03zm126.04 182.05c-42.02,0 -70.02,-28.01 -70.02,-70.02l168.05 0c0,-70.02 -42.01,-126.04 -98.03,-126.04 -56.02,0 -98.03,56.02 -98.03,112.03 0,70.02 42.02,112.04 98.03,112.04 28.01,0 70.02,-14.01 84.02,-42.02l-14 -14c-14.01,14 -42.02,28.01 -70.02,28.01zm0 -168.05c42.01,0 56.02,28.01 70.02,70.02l-140.04 0c0,-42.02 28.01,-70.02 70.02,-70.02zm350.1 154.04c0,14.01 -14.01,14.01 -28.01,14.01 -14.01,0 -14.01,-14.01 -14.01,-28.01l0 -126.04 42.01 0 0 -28.01 -42.01 0 0 -56.02 -28.01 0 0 56.02 -42.01 0 0 28.01 42.01 0 0 126.04c0,28.01 14.01,56.02 42.02,56.02 14,0 28.01,-14.01 42.01,-14.01l-14.01 -28.01zm154.05 14.01c-42.02,0 -70.02,-28.01 -84.03,-70.02l168.05 0c0,-70.02 -28.01,-126.04 -98.03,-126.04 -56.02,0 -98.03,56.02 -98.03,112.03 0,70.02 56.02,112.04 112.04,112.04 28.01,0 56.02,-14.01 70.02,-42.02l-14.01 -14c-14.01,14 -42.02,28.01 -56.02,28.01zm-14.01 -168.05c42.01,0 70.02,28.01 70.02,70.02l-140.04 0c14.01,-42.02 42.01,-70.02 70.02,-70.02zm252.07 196.06c28.01,0 56.02,-14.01 70.02,-42.02l-28.01 -14c-14.01,14 -28.01,28.01 -42.01,28.01 -42.01,0 -84.03,-42.01 -84.03,-84.03 0,-42.01 42.02,-84.02 84.03,-84.02 14.01,0 28.01,14.01 42.01,28.01l28.01 -14c-28.01,-28.01 -42.02,-42.02 -70.02,-42.02 -56.02,0 -112.03,56.02 -112.03,112.03 0,56.02 56.02,112.04 112.03,112.04zm210.06 -224.07c-28.01,0 -56.02,28.01 -70.02,42.02l0 -98.03 -28.01 0 0 266.08 28.01 0 0 -126.04c0,-28.01 28.01,-56.02 70.02,-56.02 28.01,0 56.02,28.01 56.02,56.02l0 126.04 28.01 0 0 -126.04c0,-42.01 -42.01,-84.03 -84.02,-84.03zm238.07 0c-28.01,0 -56.02,28.01 -70.02,42.02l0 -28.01 -28.01 0 0 196.06 28.01 0 0 -126.04c0,-28.01 28.01,-56.02 70.02,-56.02 28.01,0 42.01,28.01 42.01,56.02l0 126.04 28.01 0 0 -126.04c0,-42.01 -28.01,-84.03 -70.02,-84.03zm238.07 224.07c56.02,0 98.03,-56.02 98.03,-112.04 0,-56.02 -42.01,-112.03 -98.03,-112.03 -70.02,0 -112.03,56.02 -112.03,112.03 0,56.02 42.01,112.04 112.03,112.04zm0 -28.01c-42.01,0 -84.03,-42.01 -84.03,-84.03 0,-42.01 42.02,-84.02 84.03,-84.02 28.01,0 70.02,42.01 70.02,84.02 0,42.02 -42.01,84.03 -70.02,84.03zm154.05 14.01l28.01 0 0 -266.08 -28.01 0 0 266.08zm182.05 14.01c56.02,0 112.03,-56.02 112.03,-112.04 0,-56.02 -56.02,-112.03 -112.03,-112.03 -56.02,0 -112.04,56.02 -112.04,112.03 0,56.02 56.02,112.04 112.04,112.04zm0 -28.01c-42.02,0 -70.02,-42.01 -70.02,-84.03 0,-42.01 28.01,-84.02 70.02,-84.02 42.01,0 70.02,42.01 70.02,84.02 0,42.02 -28.01,84.03 -70.02,84.03zm308.09 -182.05l0 28.01c-14.01,-28.01 -42.02,-42.02 -70.02,-42.02 -56.02,0 -98.03,42.02 -98.03,98.03 0,56.02 42.02,98.03 98.03,98.03 28.01,0 56.02,-14.01 70.02,-42.01l0 42.01c0,42.01 -28.01,56.02 -70.02,56.02 -28.01,0 -42.01,0 -70.02,-14.01l-14.01 14.01c28.01,14.01 56.02,28.01 84.03,28.01 70.02,0 112.03,-28.01 112.03,-84.03l0 -182.05 -42.01 0zm-56.02 154.05c-42.02,0 -70.02,-28.01 -70.02,-70.02 0,-42.02 28.01,-70.02 70.02,-70.02 28.01,0 56.02,28.01 56.02,70.02 0,42.01 -28.01,70.02 -56.02,70.02zm182.05 112.03c28.01,0 56.02,0 70.02,-42.02l84.02 -224.06 -28.01 0 -70.02 168.05 -70.02 -168.05 -28.01 0 84.03 196.06 -14.01 28.01c0,14.01 -14,28.01 -28.01,28.01 0,0 -14.01,-14.01 -28.01,-14.01l0 28.01c14.01,0 14.01,0 28.01,0zm378.11 -70.02l28.01 0 56.02 -154.05 56.02 154.05 28.01 0 70.02 -196.06 -42.01 0 -42.02 168.05 -56.02 -168.05 -28.01 0 -56.02 168.05 -56.02 -168.05 -28.01 0 70.02 196.06zm364.11 14.01c56.02,0 112.03,-56.02 112.03,-112.04 0,-56.02 -56.02,-112.03 -112.03,-112.03 -56.02,0 -112.03,56.02 -112.03,112.03 0,56.02 56.02,112.04 112.03,112.04zm0 -28.01c-42.01,0 -70.02,-42.01 -70.02,-84.03 0,-42.01 28.01,-84.02 70.02,-84.02 42.01,0 70.02,42.01 70.02,84.02 0,42.02 -28.01,84.03 -70.02,84.03zm182.05 -140.04l0 -42.01 -28.01 0 0 196.06 28.01 0 0 -112.03c0,-42.02 42.01,-70.02 84.03,-70.02l0 -28.01c-42.02,0 -70.02,28.01 -84.03,56.02zm308.09 -42.01l-42.01 0 -112.03 112.03 0 -182.05 -28.01 0 0 266.08 28.01 0 0 -56.02 42.01 -28.01 70.02 84.03 42.01 0 -98.03 -112.03 98.03 -84.03z"/>
   <polygon class="fil1" points="-0,1190.35 406.12,1190.35 812.24,462.14 406.12,462.14 "/>
   <polygon class="fil2" points="952.28,1092.32 616.18,1092.32 798.24,770.23 1134.34,770.23 "/>
   <polygon class="fil2" points="1036.3,0 854.25,322.1 252.07,322.1 420.12,0 "/>
   <path class="fil0" d="M1554.46 826.25l476.14 0 0 -140.04 -280.08 0 280.08 -308.09 0 -112.03 -462.13 0 0 140.04 266.08 0 -280.08 308.09 0 112.03zm952.28 -560.17l0 336.1 0 0c0,56.02 -42.02,98.03 -112.03,98.03 -56.02,0 -98.03,-42.01 -98.03,-112.03l0 -322.1 -154.04 0 0 364.11c0,112.03 84.02,210.06 210.06,210.06 70.02,0 126.04,-42.01 154.05,-84.03l0 70.02 168.05 0 0 -560.17 -168.05 0zm560.17 574.17c98.03,0 168.05,-42.01 224.06,-98.03l-98.03 -84.02c-28.01,28.01 -70.02,42.01 -126.04,42.01 -70.02,0 -140.04,-70.02 -140.04,-154.04 0,-84.03 70.02,-154.05 140.04,-154.05 42.01,0 98.03,14.01 126.04,56.02l98.03 -98.03c-56.02,-56.02 -126.04,-84.03 -224.06,-84.03 -154.05,0 -294.09,126.04 -294.09,280.08 0,154.04 140.04,294.09 294.09,294.09zm588.18 0c98.03,0 168.05,-42.01 224.06,-98.03l-98.03 -84.02c-28.01,28.01 -84.03,42.01 -126.04,42.01 -84.03,0 -140.04,-70.02 -140.04,-154.04 0,-84.03 56.02,-154.05 140.04,-154.05 42.01,0 84.02,14.01 112.03,56.02l112.03 -98.03c-56.02,-56.02 -126.04,-84.03 -224.06,-84.03 -154.05,0 -294.09,126.04 -294.09,280.08 0,154.04 140.04,294.09 294.09,294.09zm574.17 0c168.05,0 308.09,-140.04 308.09,-294.09 0,-154.05 -140.04,-280.08 -308.09,-280.08 -168.05,0 -294.09,126.04 -294.09,280.08 0,154.04 126.04,294.09 294.09,294.09zm0 -140.04c-84.02,0 -154.04,-70.02 -154.04,-154.04 0,-84.03 70.02,-154.05 154.04,-154.05 84.03,0 154.05,70.02 154.05,154.05 0,84.02 -70.02,154.04 -154.05,154.04zm700.21 -14.01c-14,14.01 -28.01,14.01 -56.02,14.01 -28.01,0 -56.02,-14.01 -56.02,-56.02l0 -252.07 126.04 0 0 -126.04 -126.04 0 0 -140.04 -140.04 0 0 140.04 -84.02 0 0 126.04 84.02 0 0 280.08c0,98.03 70.02,168.05 154.05,168.05 56.02,0 98.03,-28.01 140.04,-56.02l-42.02 -98.03zm392.12 14.01c-70.02,0 -112.03,-42.01 -126.04,-98.03l392.12 0c0,-210.06 -98.03,-336.1 -266.08,-336.1 -168.05,0 -294.09,112.03 -294.09,280.08 0,168.05 126.04,294.09 294.09,294.09 84.03,0 182.05,-42.01 224.06,-84.03l-98.03 -112.03c-28.01,42.01 -84.03,56.02 -126.04,56.02zm0 -308.09c70.02,0 98.03,42.01 112.03,98.03l-238.07 0c14.01,-56.02 70.02,-98.03 126.04,-98.03zm644.19 448.13c98.03,0 168.05,-42.01 224.06,-98.03l-112.03 -84.02c-28.01,28.01 -70.02,42.01 -112.03,42.01 -84.03,0 -154.05,-70.02 -154.05,-154.04 0,-84.03 70.02,-154.05 154.05,-154.05 42.01,0 84.02,14.01 112.03,56.02l112.03 -98.03c-56.02,-56.02 -140.04,-84.03 -224.06,-84.03 -168.05,0 -294.09,126.04 -294.09,280.08 0,154.04 126.04,294.09 294.09,294.09zm630.19 -574.17c-70.02,0 -126.04,28.01 -168.05,70.02l0 -252.07 -154.04 0 0 742.22 154.04 0 0 -322.1c0,-70.02 56.02,-112.03 126.04,-112.03 56.02,0 98.03,42.01 98.03,112.03l0 322.1 154.04 0 0 -350.1c0,-126.04 -84.02,-210.06 -210.06,-210.06z"/>
  </g>
 </g>
</svg>