<svg width="644" height="644" viewBox="0 0 644 644" fill="none" xmlns="http://www.w3.org/2000/svg">
<path d="M154.85 95.8591C154.758 97.395 154.278 98.8826 153.456 100.183C152.634 101.484 151.496 102.555 150.148 103.297C151.293 105.237 151.834 107.473 151.702 109.721C151.57 111.969 150.771 114.127 149.408 115.92C148.073 117.668 146.293 119.024 144.253 119.846C142.213 120.667 139.989 120.924 137.816 120.589C137.236 122.167 135.852 124.904 134.274 125.419C134.03 125.546 133.76 125.612 133.485 125.612C133.21 125.612 132.94 125.546 132.696 125.419C133.078 127.679 134.145 129.767 135.751 131.403C137.357 133.038 139.427 134.141 141.68 134.564C149.054 135.884 155.944 133.469 155.944 125.966C157.709 126.322 159.53 126.291 161.281 125.874C163.033 125.457 164.672 124.664 166.087 123.551C167.095 122.725 167.93 121.709 168.543 120.559C169.156 119.41 169.537 118.15 169.662 116.854C169.984 108.546 164.22 103.04 160.646 103.04C163.254 98.4351 161.579 94.4423 157.426 91.4155C156.367 90.7586 155.182 90.3308 153.948 90.1597C154.614 91.9835 154.92 93.9189 154.85 95.8591ZM90.4818 98.2419C90.6269 98.2419 90.7662 98.1842 90.8688 98.0816C90.9715 97.9789 91.0292 97.8397 91.0292 97.6945C91.0292 97.5493 90.9715 97.4101 90.8688 97.3074C90.7662 97.2048 90.6269 97.1471 90.4818 97.1471L88.5175 96.9217C87.9057 96.9217 86.9075 96.9217 86.3279 96.7285C85.9531 92.0025 85.9531 87.2543 86.3279 82.5283C86.3215 82.3937 86.2684 82.2655 86.1777 82.1658C86.087 82.0662 85.9644 82.0012 85.831 81.9821C85.6976 81.9631 85.5617 81.9911 85.4467 82.0614C85.3317 82.1317 85.2448 82.2399 85.2009 82.3673C83.8008 85.9524 83.1753 89.7932 83.3655 93.6373C83.3151 94.9672 83.4341 96.2981 83.7197 97.5979C84.4925 99.6265 88.3888 98.7249 90.4818 98.2419ZM75.5409 79.4693C73.9953 79.8879 71.9023 81.4013 72.6751 81.9809C73.8105 82.502 75.1043 82.5598 76.2816 82.1419C77.4086 81.8521 79.2762 80.7251 79.244 80.1455C79.2118 79.5659 77.0543 79.0507 75.5409 79.4693ZM96.4066 81.7233C107.741 84.0739 102.492 79.7591 96.9218 79.0507C95.4728 78.8575 92.0918 79.0507 92.1562 79.8557C92.2206 80.6607 95.5372 81.5301 96.4066 81.7233ZM98.9503 87.1329C98.8601 86.9736 98.7392 86.8338 98.5946 86.7216C98.45 86.6093 98.2846 86.5268 98.1079 86.4789C97.9313 86.431 97.7468 86.4186 97.5653 86.4424C97.3838 86.4662 97.2089 86.5258 97.0505 86.6177C96.2455 87.0685 96.2777 87.5515 96.4709 90.1597C96.4966 90.5269 96.667 90.8689 96.9448 91.1105C97.2226 91.352 97.5849 91.4733 97.9522 91.4477C98.3194 91.4221 98.6614 91.2516 98.9029 90.9739C99.1445 90.6961 99.2658 90.3337 99.2401 89.9665C99.2885 89.0127 99.1908 88.0572 98.9503 87.1329ZM76.1527 88.9039C76.1826 88.5367 76.0654 88.1726 75.8269 87.8918C75.5884 87.611 75.2481 87.4365 74.8808 87.4066C74.5136 87.3767 74.1496 87.4939 73.8688 87.7325C73.588 87.971 73.4134 88.3113 73.3836 88.6785C73.3225 89.4609 73.3225 90.2468 73.3836 91.0291C73.4092 91.3963 73.5796 91.7383 73.8574 91.9799C74.1352 92.2214 74.4975 92.3427 74.8647 92.3171C75.232 92.2915 75.574 92.121 75.8155 91.8433C76.0571 91.5655 76.1784 91.2031 76.1527 90.8359C76.2171 90.1597 76.1205 89.2903 76.1527 88.9039ZM87.3262 109.866C87.3262 110.897 91.4155 111.154 93.5407 109.029C95.1185 107.451 95.0219 105.036 94.3779 104.875C93.7339 104.714 94.1526 104.875 91.8342 106.872C90.3852 108.095 87.2618 109.061 87.3262 109.866Z" fill="black"/>
<path d="M626.548 83.1084C625.706 82.8365 624.815 82.7504 623.937 82.856C623.058 82.9616 622.213 83.2565 621.46 83.7202C622.075 82.2459 622.287 80.6342 622.072 79.0512C621.492 76.443 617.693 75.2516 614.569 79.0512C614.376 76.9904 613.442 75.5736 611.8 75.2838C607.711 74.511 605.94 82.3034 605.038 86.3928C602.913 84.815 599.435 82.1424 597.696 84.2354C597.204 84.7607 596.873 85.4159 596.742 86.1235C596.611 86.8311 596.685 87.5614 596.956 88.2282C598.208 90.4164 599.991 92.2545 602.14 93.5734C601.528 94.9902 598.92 98.7254 597.568 100.915C596.473 100.593 594.154 99.9812 593.671 100.915C582.369 116.307 551.811 151.984 532.781 151.244C503.383 150.117 466.385 135.884 462.682 136.399L457.498 125.033C463.2 121.128 467.482 115.478 469.701 108.933C473.312 98.942 474.953 88.346 474.531 77.731C474.555 74.2901 474.394 70.8505 474.048 67.427C487.637 66.5254 496.588 50.522 485.995 37.2878C484.973 35.701 483.643 34.336 482.083 33.2739C480.523 32.2118 478.765 31.4743 476.914 31.1054C474.732 30.9917 472.548 31.2866 470.474 31.9748C457.594 35.1948 457.401 27.0482 448.578 24.8586C444.545 24.1829 440.405 24.617 436.6 26.1144C423.72 30.6224 426.231 37.803 420.274 43.7922C417.054 47.0122 403.305 42.472 397.734 51.6168C391.81 61.631 392.357 82.8186 400.954 91.1262C402.864 92.8417 404.972 94.3227 407.233 95.5376C409.319 97.6703 411.76 99.4244 414.446 100.722C416.958 105.842 419.824 120.557 420.886 126.128L419.888 134.5C413.021 135.579 406.249 137.194 399.634 139.33C388.796 142.838 378.281 147.277 368.207 152.596C349.853 162.256 352.107 162.063 351.463 161.032C349.237 158.61 346.872 156.32 344.379 154.174C326.798 139.362 307.735 126.739 285.228 123.036L282.587 108.063C289.671 102.267 293.535 90.5788 293.664 82.3034C296.304 83.3982 298.397 81.4662 299.782 79.0834C300.168 78.375 302.583 79.0834 304.451 74.8974C304.774 74.0247 304.774 73.0653 304.451 72.1926C305.097 71.8069 305.65 71.2844 306.073 70.6618C306.495 70.0393 306.776 69.3318 306.896 68.5892C307.015 67.8465 306.971 67.0866 306.766 66.3629C306.56 65.6392 306.199 64.9693 305.707 64.4002C306.699 63.8362 307.548 63.0524 308.19 62.1091C308.832 61.1658 309.249 60.088 309.41 58.9584C310.118 54.7402 309.152 50.9406 305.095 49.6204C305.095 48.6866 305.771 47.141 305.771 46.819C305.807 45.3196 305.54 43.8284 304.986 42.4343C304.433 41.0402 303.605 39.7718 302.551 38.7046C298.075 34.8728 296.659 35.1948 293.857 35.4846C293.857 33.5526 295.081 32.2646 293.052 29.6242C291.496 27.8291 289.425 26.5569 287.121 25.9808C284.816 25.4046 282.39 25.5525 280.172 26.4042L279.367 26.6618C278.864 25.3964 278.099 24.2517 277.122 23.3027C276.146 22.3538 274.979 21.6221 273.7 21.1556C269.675 19.6422 266.906 21.6064 263.525 23.3774C258.469 18.8694 248.809 21.2844 243.625 24.4078C241.275 25.8246 241.049 28.3362 240.115 29.4954C238.115 29.3495 236.122 29.8704 234.448 30.9766C232.967 31.9104 231.582 33.2628 230.391 34.1966C229.606 34.8057 228.959 35.5738 228.491 36.4506C227.494 38.0876 226.919 39.9463 226.817 41.8602C226.025 42.0497 225.273 42.3767 224.595 42.8262C222.023 45.1293 220.214 48.1623 219.411 51.5202C219.06 53.3781 219.238 55.2973 219.926 57.0586C219.926 57.2518 220.248 57.6382 220.345 57.8314C219.701 58.7652 218.026 59.5058 217.704 62.0174C217.382 64.529 217.479 69.4556 219.926 70.9368C220.956 71.5486 223.146 72.1926 223.919 72.6756C223.797 73.993 223.797 75.3188 223.919 76.6362C224.756 82.078 230.133 84.0422 235.672 83.2372L237.185 84.01C237.773 89.7465 239.296 95.3482 241.693 100.593C243.481 104.058 246.174 106.973 249.486 109.029L247.94 122.747C240.255 123.87 232.703 125.768 225.4 128.414C203.279 136.496 190.366 146.993 178.935 165.218C163.19 152.177 136.528 132.632 115.92 132.986C116.052 131.594 116.052 130.192 115.92 128.8C115.92 127.866 115.405 125.001 114.535 124.582C114.535 123.004 114.278 121.362 114.149 119.849C121.426 130.603 136.27 124.904 134.628 117.562C136.465 117.684 138.303 117.358 139.986 116.612C141.669 115.866 143.145 114.722 144.288 113.28C145.398 111.694 145.993 109.806 145.993 107.87C145.993 105.935 145.398 104.046 144.288 102.461C144.022 102.031 143.696 101.641 143.322 101.301C148.345 100.013 150.084 97.7916 150.728 94.6038C151.246 92.165 151.057 89.6288 150.181 87.2944C150.754 87.0114 151.294 86.6658 151.791 86.264C153.267 84.8536 154.268 83.0196 154.657 81.0154C155.425 74.0379 153.911 66.9991 150.342 60.9548C149.185 58.9393 147.292 57.4505 145.061 56.801C144.642 54.884 144.394 52.9336 144.32 50.9728C143.789 47.9281 142.535 45.0554 140.664 42.5957C138.792 40.136 136.358 38.1612 133.566 36.837C130.86 35.5684 127.923 34.867 124.936 34.7762C123.681 34.6721 122.419 34.8368 121.233 35.2592C119.18 32.7761 116.485 30.9048 113.441 29.8496C107.533 28.7524 101.428 29.7547 96.1814 32.6832C95.1188 33.3916 94.2816 34.7762 93.3478 35.4524C91.0552 34.4679 88.5698 34.0145 86.0773 34.126C83.5848 34.2375 81.1498 34.9111 78.9544 36.0964C76.6237 37.1176 74.5237 38.5997 72.7806 40.4534C71.0375 42.3072 69.6874 44.4944 68.8114 46.8834C67.459 50.1034 66.2354 55.3842 68.2962 58.1534C68.4146 58.3067 68.5221 58.4681 68.6182 58.6364C67.3946 60.7938 64.5932 61.8564 63.6594 67.8456C63.279 70.8499 63.3987 73.8964 64.0136 76.8616C64.1849 77.592 64.5942 78.2446 65.1772 78.7168C65.7601 79.189 66.4836 79.4539 67.2336 79.4698C66.2354 89.1298 66.3964 102.01 71.6772 110.35C72.9918 112.3 74.526 114.094 76.2496 115.695C78.0501 117.459 80.2643 118.743 82.6896 119.43V125.162C81.0796 126.063 82.2066 131.183 81.5304 134.274C68.4572 133.373 50.1676 136.399 40.0246 144.771C24.3754 157.78 17.9998 176.134 16.3254 196.42C14.0392 224.402 29.2054 241.726 52.7436 244.72C54.2223 249.619 55.9636 254.434 57.96 259.146C48.0142 277.795 40.7409 297.751 36.3538 318.426C33.1338 335.943 31.6204 363.699 31.3306 390.329C31.3306 403.015 31.3306 450.607 35.581 462.457C36.2572 464.324 39.1552 465.322 41.055 465.87C46.3381 467.253 51.7211 468.222 57.155 468.768C58.5074 497.039 62.5324 604.684 62.5324 604.845C56.9997 607.806 51.9061 611.524 47.3984 615.89C46.6822 616.527 46.145 617.341 45.84 618.251C45.535 619.16 45.4728 620.133 45.6596 621.074C45.9913 621.91 46.6136 622.598 47.4122 623.012C48.2108 623.427 49.132 623.539 50.0066 623.328C55.3518 622.845 69.7452 618.53 76.2496 617.339C76.4106 618.723 76.636 620.076 77.9884 620.559C80.3068 621.364 84.8792 621.782 86.5536 619.689C88.228 617.596 87.2298 612.122 87.4552 609.772C87.6484 608.033 102.332 506.732 107.355 471.988H111.38C117.562 505.444 134.467 601.11 134.499 601.271C131.152 603.814 127.979 606.579 125 609.546C122.521 612.058 118.367 616.566 120.009 619.657C121.652 622.748 125.516 621.17 128.768 619.979C135.208 617.725 144.868 613.378 149.794 611.768C150.149 613.088 150.567 614.408 151.952 614.698C153.873 614.988 155.833 614.89 157.716 614.408C160.453 613.603 160.936 611.897 160.936 609.063C159.744 594.799 159.712 639.782 160.678 471.344C164.248 471.2 167.786 470.605 171.207 469.573C180.32 465.097 179.483 334.333 167.633 293.181C166.828 290.348 161.741 275.568 158.134 266.391C158.247 266.079 158.247 265.737 158.134 265.425C157.075 262.758 155.883 260.146 154.56 257.6C155.526 245.751 156.556 222.889 157.522 215.966L165.54 221.472C166.197 224.063 167.126 226.578 168.309 228.974C169.629 232.435 171.747 235.536 174.492 238.023C177.96 241.218 182.088 243.613 186.584 245.037C191.08 246.461 195.834 246.881 200.509 246.266H205.919C212.166 283.36 210.363 279.464 211.296 280.398C187.565 362.186 179.901 517.325 183.121 595.958C183.121 596.331 183.246 596.694 183.476 596.988C185.118 599.081 195.357 600.208 198.738 600.788C192.388 604.174 186.343 608.107 180.674 612.541C177.808 615.342 181.576 620.591 185.086 621.492C187.018 622.008 213.293 618.272 215.289 617.983C215.547 619.206 216.126 620.398 217.35 620.623C220.794 621.216 224.289 621.464 227.783 621.364C229.2 621.364 231.003 621.042 231.325 619.689C232.4 614.331 233.025 608.891 233.192 603.428C235.479 603.428 237.765 603.428 238.505 602.784C244.945 596.344 273.7 432.478 276.051 419.244C276.85 414.805 277.055 410.278 276.662 405.785C271.993 350.562 273.732 373.295 272.992 352.011C273.022 351.884 273.094 351.772 273.196 351.691C273.299 351.61 273.425 351.567 273.555 351.567C273.685 351.567 273.812 351.61 273.914 351.691C274.016 351.772 274.088 351.884 274.119 352.011C276.276 377.32 277.564 378.189 279.303 411.548C279.303 413.835 305.546 593.382 310.279 598.083C312.8 599.126 315.505 599.652 318.233 599.629C317.925 606.561 318.476 613.504 319.875 620.301C319.964 620.556 320.104 620.79 320.287 620.99C320.47 621.189 320.691 621.349 320.937 621.46C323.288 622.619 332.079 621.46 333.817 621.235C334.37 621.026 334.855 620.669 335.218 620.204C335.582 619.738 335.81 619.181 335.878 618.594C338.615 618.981 364.182 622.587 366.05 622.104C369.559 621.203 373.359 615.954 370.461 613.12C363.755 607.993 356.623 603.447 349.145 599.532C353.009 599.242 361.123 598.534 364.472 596.57C369.527 593.575 364.697 368.948 324.125 276.824C324.866 275.632 327.699 242.563 327.828 241.082C338.006 240.737 347.868 237.461 356.229 231.647L369.109 227.01C361.265 256.895 355.382 287.26 351.495 317.911C350.755 323.964 347.019 354.039 351.044 358.547C351.46 359.015 352.033 359.313 352.654 359.384C354.49 359.545 361.831 360.189 369.656 360.672C369.656 453.054 378.736 502.642 393.387 599.918C393.433 600.22 393.584 600.496 393.814 600.696C394.044 600.897 394.338 601.009 394.643 601.013H395.48C396.087 605.498 397.067 609.925 398.411 614.247C400.439 618.337 431.899 618.24 436.342 616.823C437.118 616.426 437.733 615.774 438.084 614.976C438.436 614.179 438.503 613.285 438.274 612.444C436.986 606.713 425.394 605.457 419.92 601.335H421.82C422.117 601.343 422.407 601.248 422.642 601.066C422.877 600.884 423.041 600.626 423.108 600.337L447.741 477.043C448.031 478.846 465.354 602.623 465.354 602.623C465.409 602.947 465.579 603.24 465.834 603.448C466.089 603.655 466.411 603.763 466.739 603.75H469.283C469.735 608.288 470.467 612.794 471.472 617.242C471.522 617.446 471.617 617.636 471.751 617.798C471.885 617.96 472.054 618.089 472.245 618.176C475.465 619.689 503.769 621.396 508.438 618.852C509.286 618.392 509.932 617.632 510.247 616.72C510.563 615.808 510.527 614.811 510.145 613.925C509.337 611.683 507.893 609.725 505.991 608.29C502.095 606.133 495.3 605.65 491.662 603.75H493.465C493.773 603.732 494.067 603.616 494.304 603.419C494.542 603.222 494.71 602.955 494.785 602.655C494.785 602.655 504.155 568.234 509.662 489.054C512.882 442.879 513.783 395.674 513.429 350.014C517.551 350.336 524.57 350.658 528.048 350.497C529.014 350.497 529.948 350.497 530.366 349.563C534.101 342.125 531.268 268.194 529.175 249.55C528.982 247.747 524.377 217.125 523.765 213.132C534.488 212.713 549.976 210.427 558.767 204.148C603.847 171.948 612.444 116.951 616.115 109.577C616.469 108.804 615.6 108.418 613.442 107.355C614.681 103.679 616.154 100.087 617.854 96.6002C622.329 94.1208 627.514 91.2872 627.868 86.1674C628.039 85.5836 628.001 84.9582 627.76 84.3996C627.519 83.841 627.09 83.3842 626.548 83.1084ZM305.417 50.2322C305.159 50.2322 305.095 50.039 305.095 49.717C305.095 49.395 305.707 50.2322 305.417 50.2322ZM423.945 172.592C439.852 173.59 449.319 173.719 465.483 173.623C466.514 179.869 467.673 186.696 468.929 193.941C460.267 193.941 430.9 194.263 423.269 194.134C423.623 187.05 423.881 179.805 423.945 172.657V172.592ZM419.727 239.987C438.467 241.082 452.378 241.371 477.268 240.856C478.943 250.033 480.682 259.307 482.227 267.453C467.158 267.904 432.382 268.516 416.732 268.065C417.344 262.945 418.6 250.516 419.727 240.051V239.987ZM415.38 278.434C439.916 279.85 459.558 279.915 484.513 279.174C485.737 285.357 486.928 291.346 488.088 296.981C459.623 298.076 431.77 298.14 411.967 297.754C413.276 291.378 414.414 284.938 415.38 278.434ZM475.175 229.264C465.515 229.457 430.095 229.844 420.693 229.715C421.53 220.506 422.174 212.166 422.657 204.599C438.113 205.565 448.61 205.919 470.957 205.662C471.73 209.912 474.564 225.722 475.175 229.264ZM461.329 143.29C461.716 148.571 462.875 156.75 463.68 161.998C455.469 161.998 430.353 162.288 423.913 162.192C423.848 155.582 423.408 148.981 422.593 142.421C431.287 154.109 454.761 152.499 461.329 143.29ZM409.809 308.025C436.71 309.649 463.677 309.853 490.599 308.637C491.823 314.304 492.95 319.456 494.012 323.964C488.925 323.675 428.775 320.744 406.879 319.682C407.781 316.011 408.747 312.115 409.713 308.025H409.809ZM416.861 99.5304C415.734 97.2764 408.586 96.3104 407.91 90.611C407.137 83.9456 414.897 83.7202 417.57 86.7148C417.795 86.9402 419.373 89.0654 419.566 89.323C421.24 91.577 422.786 91.6414 423.301 88.4214C424.042 82.4322 422.206 70.4538 429.194 71.7096C434.187 73.2756 439.32 74.354 444.521 74.9296C454.406 75.8312 462.263 74.9296 468.639 67.8456C469.347 67.6846 471.698 67.588 472.535 67.5236C472.828 70.9284 472.914 74.3479 472.793 77.7632C473.012 88.0996 471.219 98.3799 467.512 108.031C462.392 120.299 455.308 123.262 455.308 123.262C455.144 123.325 454.993 123.42 454.866 123.541C454.739 123.663 454.637 123.809 454.567 123.97C454.278 124.711 454.181 123.97 460.235 137.526C461.523 149.215 426.908 153.981 422.432 135.627L423.527 126.256C423.655 125.58 419.824 105.552 416.765 99.5304H416.861ZM346.021 157.49C356.203 167.599 363.219 180.456 366.211 194.488C368.11 204.148 367.305 212.263 364.15 217.833C362.083 221.411 359.5 224.666 356.486 227.493C353.327 230.723 349.472 233.19 345.216 234.706C336.277 237.985 326.685 239.089 317.234 237.926C304.665 236.337 292.255 233.676 280.14 229.973C280.14 229.007 279.947 227.976 279.85 226.753L290.959 222.695C293.087 222.103 295.148 221.294 297.109 220.28C298.236 219.701 298.333 217.994 298.462 216.545C299.009 211.264 297.914 211.973 299.524 210.685C303.131 207.851 313.048 205.082 317.363 203.858C318.812 203.472 320.905 203.15 320.261 201.765C320.057 199.788 319.247 197.921 317.943 196.42C311.149 167.633 312.308 167.73 311.213 167.923C311.138 167.93 311.066 167.953 311.002 167.991C310.937 168.028 310.881 168.079 310.838 168.141C310.796 168.202 310.766 168.272 310.753 168.346C310.74 168.419 310.743 168.495 310.762 168.567C312.211 177.132 314.369 188.209 315.914 195.68L311.921 195.1C311.245 195.1 310.569 195.1 310.408 194.778C309.12 192.105 309.667 188.95 306.576 187.404C306.254 187.187 305.891 187.041 305.508 186.974C305.126 186.906 304.734 186.92 304.358 187.014C303.981 187.109 303.629 187.281 303.323 187.52C303.017 187.759 302.765 188.06 302.583 188.402C300.909 191.622 302.938 198.835 302.583 198.739C300.869 199.441 299.073 199.928 297.238 200.188C297.164 199.893 297.032 199.615 296.85 199.372C296.667 199.129 296.438 198.924 296.176 198.771C289.643 195.578 282.844 192.96 275.857 190.946C274.344 178.259 272.348 162.288 271.639 156.943C271.886 156.828 272.114 156.676 272.315 156.492C273.452 154.251 274.285 151.869 274.795 149.408C275.342 150.02 275.793 150.6 276.791 150.213C285.527 143.865 293.782 136.88 301.489 129.315C317.823 136.057 332.884 145.543 346.021 157.362V157.49ZM305.256 189.98C307.574 191.3 306.319 195.229 308.927 197.193C311.54 197.959 314.254 198.328 316.977 198.288C317.615 199.35 318.022 200.535 318.168 201.765C315.657 202.538 303.453 205.243 298.365 208.753C298.261 206.322 297.992 203.902 297.56 201.508C300.201 201.282 303.517 201.508 304.483 199.801C305.449 198.095 303.807 189.111 305.256 189.98ZM299.041 128.8C293.278 133.791 280.365 144.482 276.501 147.315C274.569 145.158 269.514 139.169 268.097 136.979C271.317 134.21 283.231 126.16 284.97 125.194C289.78 125.765 294.504 126.911 299.041 128.607V128.8ZM248.326 124.968L264.04 137.076C261.657 139.619 255.829 144.675 253.221 147.315C249.55 144.675 239.536 134.081 233.901 128.221C238.632 126.819 243.451 125.733 248.326 124.968ZM239.568 82.3356C239.117 81.6916 239.053 81.8848 235.768 80.146C233.611 78.375 231.003 76.926 230.037 74.2856C230.037 72.096 230.713 69.3912 232.999 69.52C234.728 69.9183 236.331 70.7367 237.668 71.9028C239.13 72.3822 240.701 72.4146 242.181 71.9958C243.661 71.5771 244.982 70.7262 245.976 69.5522C247.092 67.5427 247.424 65.1913 246.91 62.9512C249.028 62.7617 250.991 61.7574 252.384 60.1498C253.071 58.76 253.486 57.2518 253.607 55.7062C256.619 56.5619 259.836 56.3223 262.688 55.03C264.637 54.1902 266.416 53.0006 267.936 51.5202C268.273 52.3674 268.717 53.1681 269.256 53.903C269.757 54.6687 270.455 55.2851 271.277 55.6875C272.099 56.0898 273.013 56.2631 273.925 56.1892C275.062 56.0089 276.155 55.6156 277.145 55.03V56.318C277.128 57.3056 277.328 58.285 277.73 59.1872C278.132 60.0894 278.727 60.8926 279.473 61.5402C280.219 62.1878 281.097 62.6642 282.047 62.9357C282.997 63.2073 283.995 63.2676 284.97 63.1122C284.95 63.3264 284.95 63.542 284.97 63.7562C285.292 65.495 284.616 70.7436 287.031 71.3554C289.446 71.9672 288.126 65.9458 292.762 65.2052C293.595 65.0019 294.473 65.0967 295.244 65.4731C296.015 65.8495 296.629 66.4839 296.981 67.266C297.882 70.164 296.981 71.452 295.467 74.3178L294.469 75.4448C292.923 77.1192 291.249 78.8902 291.249 80.5002C291.345 85.4255 290.413 90.3167 288.512 94.8614C286.876 99.4681 284.001 103.535 280.204 106.614C280.015 106.76 279.868 106.952 279.778 107.173C279.687 107.394 279.657 107.634 279.689 107.87L282.33 123.358L265.65 134.693C262.72 132.439 266.616 135.788 250.58 123.391L252.319 108.418C252.349 108.143 252.298 107.865 252.172 107.619C252.046 107.373 251.851 107.17 251.611 107.033C240.051 100.561 240.953 84.5574 239.568 82.3356ZM202.216 143.194C211.026 136.885 220.818 132.076 231.196 128.961C237.091 135.744 243.358 142.194 249.969 148.281C251.385 149.505 253.189 151.018 254.444 149.73C254.895 149.215 255.571 148.539 256.344 147.766C257.148 150.56 258.093 153.312 259.178 156.009C259.306 156.248 259.48 156.459 259.69 156.63C259.9 156.801 260.142 156.93 260.401 157.007C260.047 161.161 259.178 173.107 258.18 186.342C247.964 184.149 237.517 183.219 227.074 183.572C227.074 182.735 228.105 172.818 228.137 172.496C228.137 170.757 228.137 168.471 228.33 167.569C228.369 167.428 228.35 167.278 228.277 167.151C228.205 167.024 228.085 166.931 227.944 166.893C227.803 166.854 227.652 166.873 227.526 166.946C227.399 167.018 227.306 167.138 227.268 167.279C224.402 173.107 224.917 177.229 225.303 183.669C218.101 184.025 211.041 185.809 204.534 188.918C204.402 188.986 204.302 189.104 204.257 189.246C204.212 189.388 204.225 189.542 204.293 189.674C204.361 189.807 204.479 189.906 204.621 189.952C204.763 189.997 204.917 189.984 205.05 189.916C227.59 178.903 268.484 189.336 290.219 198.706C291.735 199.328 293.209 200.048 294.63 200.864C295.622 205.941 295.925 211.129 295.532 216.288C295.532 217.737 295.532 218.091 292.956 219.089C291.12 219.83 288.931 220.345 287.578 220.86C283.167 222.502 278.916 224.08 274.698 225.69C250.886 233.333 226.556 239.251 201.894 243.4C193.876 243.4 183.315 241.919 177.422 236.38C151.92 212.52 178.581 159.422 202.216 143.194ZM81.5304 115.92C78.5377 114.194 75.9817 111.804 74.06 108.933C69.0368 101.14 68.9724 88.3892 69.8096 79.18C74.3082 77.7799 78.3976 75.3042 81.7236 71.9672C85.3234 68.2883 88.4693 64.1912 91.0938 59.7634L92.897 56.2858C96.1613 64.6356 101.748 71.8761 108.997 77.1514C111.517 78.3052 114.244 78.9403 117.015 79.019C116.952 81.5444 117.222 84.0671 117.82 86.5216C117.884 86.6516 117.974 86.7671 118.085 86.8609C118.196 86.9548 118.324 87.025 118.463 87.0672C118.602 87.1094 118.748 87.1228 118.892 87.1065C119.036 87.0902 119.175 87.0446 119.301 86.9724C120.718 86.1996 121.265 82.0458 123.455 79.18C124.034 78.375 124.711 77.7632 125.548 77.9564C126.431 78.0916 127.269 78.4336 127.995 78.9546C131.215 81.3374 128.639 90.8686 122.618 93.831C120.814 94.7326 111.412 105.681 110.8 109.126C110.397 111.019 110.497 112.984 111.09 114.825C111.283 117.627 111.605 121.265 111.831 124.485C105.874 124.485 91.3514 124.485 85.3944 124.775C85.6842 116.822 85.8452 117.659 81.5304 115.92ZM141.68 469.444H117.369C121.072 423.591 125.58 311.149 124.614 271.317C128.907 271.124 132.771 270.867 136.206 270.545C143.548 308.508 147.637 432.317 141.68 469.444ZM61.18 466.514C57.7024 428.099 61.18 303.421 70.3892 270.094C71.9992 270.319 83.5268 271.35 83.5268 271.35C78.6324 310.698 73.6092 423.623 75.348 467.77C70.1316 467.383 65.366 466.9 60.9868 466.514H61.18ZM96.7932 268.999L84.686 268.516C84.6579 265.046 84.9055 261.579 85.4266 258.148L89.7736 257.826L99.176 257.6C98.7129 261.462 97.9156 265.275 96.7932 268.999ZM59.5056 258.405L82.8184 257.954C82.1656 261.501 81.8636 265.103 81.9168 268.709C73.1688 268.638 64.447 267.744 55.867 266.037C58.2498 260.82 59.248 259.049 59.5056 258.405ZM85.7486 468.349C84.686 428.164 91.2226 305.224 95.4086 271.511C99.82 271.511 103.104 271.736 112.249 271.511C112.249 286.773 107.677 450.221 106.614 469.058C101.108 469.058 87.1654 468.446 85.7486 468.349ZM99.2726 269.031C100.063 265.273 100.451 261.441 100.432 257.6C121.587 257.214 142.292 256.699 151.63 257.954C152.902 260.198 153.979 262.546 154.85 264.974C136.657 268.87 116.242 269.031 99.2726 269.031ZM38.64 462.07C33.0694 458.528 31.2662 358.579 38.0926 318.716C41.5646 300.873 47.3335 283.556 55.2552 267.196L58.6362 267.904C49.6202 300.458 46.0138 418.761 50.4896 465C46.4234 464.575 42.4357 463.589 38.64 462.07ZM85.2334 606.97C76.2818 608.194 71.4518 608.902 67.942 609.675C65.928 609.864 63.9139 609.315 62.2748 608.129C64.9152 606.552 65.4948 606.777 65.4948 605.264C65.7846 599.017 59.409 481.294 58.6362 468.832C73.3194 470.507 91.6734 471.408 106.357 471.827C101.366 502.546 87.5196 591.224 85.1368 607.067L85.2334 606.97ZM157.297 600.337C149.118 602.623 143.998 604.104 140.553 605.392C138.581 605.86 136.506 605.585 134.725 604.62C137.043 602.784 137.526 602.913 137.397 601.4C136.818 594.96 114.117 478.492 112.829 472.02C131.054 472.406 148.249 472.213 159.422 471.44C158.682 507.601 157.394 585.589 157.2 600.434L157.297 600.337ZM165.476 293.761C176.231 331.853 177.325 448.321 170.08 467.029C167.376 468.381 155.236 468.897 152.274 469.025C158.714 428.936 155.494 308.025 148.12 268.967C151.147 268.484 153.852 267.969 156.363 267.421C159.937 277.178 164.639 291.217 165.379 293.857L165.476 293.761ZM142.743 199.64C141.358 198.384 140.006 197.257 138.846 196.034C138.757 195.919 138.625 195.844 138.48 195.825C138.335 195.807 138.189 195.848 138.074 195.937C137.958 196.027 137.883 196.159 137.865 196.304C137.847 196.449 137.887 196.595 137.977 196.71C143.483 205.726 151.115 210.073 155.204 213.776C154.174 217.704 153.111 241.243 151.984 255.185C143.483 253.221 99.0794 255.539 84.1708 255.539C83.831 255.544 83.507 255.683 83.2692 255.926C71.5484 256.473 62.307 257.021 59.731 257.182C58.1854 253.575 56.2534 247.747 55.062 244.044C60.2836 244.982 65.6343 244.938 70.84 243.915C70.9295 245.873 71.3543 247.801 72.0958 249.615C73.7058 251.031 127.287 247.2 128.993 246.845C130.152 246.588 130.185 244.978 130.281 243.625C130.571 240.405 130.764 233.321 130.893 225.014C131.391 224.815 131.841 224.51 132.21 224.121C132.578 223.731 132.858 223.266 133.03 222.758C133.201 222.25 133.26 221.71 133.203 221.177C133.145 220.643 132.972 220.129 132.696 219.669C133.073 219.189 133.347 218.638 133.503 218.048C133.659 217.458 133.693 216.843 133.602 216.24C133.512 215.637 133.299 215.059 132.977 214.541C132.655 214.023 132.231 213.577 131.73 213.229C132.146 212.823 132.463 212.326 132.656 211.777C132.848 211.229 132.911 210.643 132.839 210.066C132.767 209.489 132.563 208.937 132.242 208.452C131.921 207.967 131.493 207.563 130.99 207.272C130.99 195.647 130.99 184.313 130.571 177.97C130.378 172.753 130.217 172.174 129.412 171.53C127.834 170.564 121.04 170.95 117.981 171.079C118.023 169.713 117.653 168.367 116.918 167.215C115.437 165.766 108.9 167.215 105.101 167.215C104.264 164.542 103.845 162.546 100.883 161.161C99.4244 160.646 97.8269 160.69 96.3993 161.285C94.9718 161.88 93.8156 162.983 93.1546 164.381C93.1546 164.703 92.2208 167.344 92.0276 168.213C88.5724 168.474 85.1331 168.915 81.7236 169.533C80.5 169.92 80.4034 172.496 80.3712 174.299C68.103 175.587 67.298 175.587 67.0726 176.843C66.8472 178.098 67.7488 198.578 67.8132 200.284C64.8025 200.666 61.8221 201.258 58.8938 202.055C59.503 198.056 59.8686 194.024 59.9886 189.98C59.9886 188.209 60.1496 180.642 59.087 180.61C58.0244 180.578 57.3804 188.016 57.2838 189.497C57.0906 191.751 56.8008 200.155 56.9618 202.667C55.6094 203.086 54.3214 203.536 53.0012 204.052C52.8645 204.103 52.7538 204.206 52.6935 204.339C52.6331 204.472 52.6279 204.623 52.6792 204.76C52.7304 204.897 52.8338 205.007 52.9667 205.068C53.0995 205.128 53.2509 205.133 53.3876 205.082C71.5806 198.803 96.2136 202.313 109.705 209.075L110.317 222.631C98.6608 230.778 80.1136 240.856 65.9456 242.659C61.7672 243.142 57.5426 243.056 53.3876 242.402C28.98 239.246 16.3898 221.762 18.1608 196.646C19.5454 177.1 25.76 158.199 40.7652 145.673C50.4252 137.655 68.8758 134.918 81.4338 136.013C84.6538 136.271 82.915 129.315 83.7522 126.804C84.9758 126.611 88.872 126.546 90.1922 126.514C90.0324 128.733 90.0324 130.96 90.1922 133.179C90.1922 134.113 90.8684 137.623 91.7056 137.365C92.5428 137.108 92.8648 134.371 92.897 133.598C92.9292 132.825 92.897 132.729 92.6072 126.514H103.33C103.2 128.659 103.2 130.809 103.33 132.954C103.33 133.888 104.006 137.398 104.843 137.14C105.68 136.882 106.002 134.145 106.035 133.373C106.067 132.6 106.035 130.99 105.745 126.578H113.602C113.924 127.622 114.097 128.706 114.117 129.798C114.117 133.534 113.473 134.081 114.117 134.822C115.856 136.786 131.634 128.993 177.776 167.408C169.179 181.898 162.385 200.864 164.896 217.576C157.394 212.52 158.843 214.098 142.743 199.64ZM70.1316 199.93C69.8096 189.143 69.552 179.29 69.552 178.098C72.0958 177.712 77.8596 177.132 80.4034 176.875C80.4034 181.608 80.5966 181.93 83.6234 182.252C89.3872 182.928 114.793 182.252 117.466 179.966C117.708 179.77 117.896 179.515 118.013 179.225C118.217 177.451 118.26 175.662 118.142 173.88C121.284 173.703 124.434 173.703 127.576 173.88C128.188 179.612 128.253 200.767 128.253 206.531C127.043 206.542 125.841 206.715 124.678 207.046C125.129 204.406 125.805 200.123 123.133 199.544C122.417 199.339 121.658 199.349 120.948 199.572C120.238 199.795 119.609 200.222 119.14 200.799C117.745 202.95 116.925 205.422 116.757 207.98C115.283 207.985 113.81 207.899 112.346 207.722C112.296 207.548 112.21 207.386 112.094 207.248C111.977 207.109 111.833 206.996 111.67 206.917C98.7012 200.907 84.3459 198.526 70.1316 200.027V199.93ZM130.668 217.737C129.412 218.477 128.607 217.962 126.353 218.252C126.003 218.252 125.667 218.391 125.419 218.638C125.172 218.886 125.033 219.222 125.033 219.572C125.033 219.922 125.172 220.258 125.419 220.506C125.667 220.753 126.003 220.892 126.353 220.892C127.423 221.002 128.502 221.002 129.573 220.892C129.83 220.892 130.764 221.085 130.764 221.343C130.764 224.273 125 223.146 122.457 221.665C119.305 221.472 116.143 221.776 113.086 222.567L112.442 209.3C114.194 209.769 116.021 209.89 117.82 209.654C118.069 209.515 118.254 209.284 118.335 209.01C119.076 206.306 119.687 201.315 122.521 202.023C122.687 204.051 122.48 206.092 121.909 208.044C121.587 210.041 122.36 210.492 123.873 210.363C125.226 209.755 126.676 209.395 128.156 209.3C128.993 209.3 129.83 209.3 130.088 210.266C130.346 211.232 129.508 211.586 128.703 211.876C127.898 212.166 124.743 212.617 124.421 212.681C124.102 212.781 123.831 212.993 123.657 213.278C123.482 213.562 123.416 213.9 123.471 214.229C123.526 214.559 123.698 214.857 123.955 215.069C124.212 215.282 124.538 215.394 124.872 215.386C128.768 214.967 128.092 214.774 129.251 215.032C129.756 215.15 130.204 215.439 130.521 215.85C130.838 216.26 131.003 216.767 130.99 217.286C130.995 217.398 130.967 217.51 130.91 217.608C130.853 217.705 130.769 217.783 130.668 217.833V217.737ZM112.925 223.887C115.765 223.511 118.626 223.317 121.491 223.307C123.501 224.576 125.812 225.288 128.188 225.368C128.188 231.132 128.188 241.468 127.802 244.495C120.782 245.235 79.856 249.228 72.8364 248.584C72.4647 246.931 72.2171 245.252 72.0958 243.561C89.8702 239.89 112.024 225.69 112.925 223.983V223.887ZM228.845 618.369C225.175 618.608 221.49 618.414 217.865 617.789V616.179C217.828 615.793 217.643 615.435 217.35 615.181C216.481 614.505 217.157 614.988 194.617 617.854L187.243 618.691C186.535 618.691 185.73 619.045 185.73 618.691C183.991 618.24 181.447 615.181 182.51 614.054C188.527 609.226 194.875 604.825 201.508 600.884C211.522 602.076 223.5 602.913 230.906 603.138C230.578 608.288 229.901 613.408 228.878 618.466L228.845 618.369ZM337.649 599.822C340.644 599.822 343.638 599.661 346.504 599.5C350.851 602.172 365.212 611.027 368.754 614.666C369.334 615.278 368.754 616.469 368.239 617.145C366.178 619.979 364.601 619.271 364.021 619.206C358.547 618.755 340.418 616.212 335.041 615.439C334.854 615.412 334.664 615.423 334.481 615.473C334.299 615.522 334.129 615.608 333.981 615.726C333.833 615.843 333.711 615.99 333.622 616.157C333.533 616.323 333.479 616.506 333.463 616.695V618.305C329.853 618.958 326.176 619.164 322.515 618.916C321.213 612.645 320.544 606.259 320.519 599.854C320.454 598.92 319.488 600.24 337.681 599.918L337.649 599.822ZM322 274.988C305.481 274.988 226.913 276.952 213.518 278.466C213.196 272.992 209.461 250.484 208.559 245.074C224.1 242.4 239.491 238.918 254.67 234.642C254.291 236.831 254.194 239.06 254.38 241.275C258.261 245.961 262.573 250.274 267.26 254.155C267.502 254.346 267.792 254.468 268.098 254.508C268.404 254.548 268.716 254.503 268.999 254.38C273.603 250.536 277.551 245.969 280.687 240.856C280.821 238.193 280.638 235.523 280.14 232.903C289.092 236.123 313.37 241.21 325.542 241.017C324.962 247.683 322.515 271.575 322 274.988ZM356.132 304.709C364.375 247.94 372.071 229.135 372.232 224.949C377.334 222.731 382.085 219.78 386.336 216.191C388.006 214.708 389.577 213.116 391.037 211.425C391.584 210.91 390.844 210.105 390.328 210.588C389.813 211.071 388.557 211.747 387.656 212.327C376.708 219.669 374.196 222.341 361.348 226.914C364.155 224.142 366.282 220.759 367.563 217.028C373.198 197.998 365.438 178.388 353.105 162.964C367.811 153.88 383.454 146.41 399.763 140.682C406.195 138.526 412.783 136.868 419.469 135.723C419.711 137.132 420.156 138.499 420.79 139.78C425.942 171.433 415.766 263.557 409.713 294.147C406.203 311.922 399.505 337.843 391.81 354.426C391.296 355.655 390.682 356.839 389.974 357.968C385.917 359.32 357.452 356.937 353.041 356.519C349.756 350.562 355.198 311.6 356.196 304.709H356.132ZM492.338 600.949H467.898C467.898 599.983 449.737 471.537 449.222 469.766C451.283 456.532 465.322 385.531 464.839 367.789C464.839 367.643 464.781 367.504 464.679 367.402C464.576 367.299 464.437 367.241 464.292 367.241C464.147 367.241 464.007 367.299 463.905 367.402C463.802 367.504 463.744 367.643 463.744 367.789C463.744 369.656 463.165 373.263 462.392 378.06C450.446 452.636 441.269 495.59 420.725 598.759L395.867 598.502C379.574 495.462 371.588 445.487 371.169 360.801C374.583 360.994 388.751 361.896 391.488 360.511C392.454 360.028 393.452 357.871 394.064 356.615C398.898 345.58 402.881 334.191 405.978 322.548C428.035 323.771 484.707 326.412 494.463 326.927C498.617 346.504 498.907 347.631 500.066 348.05C503.748 348.99 507.511 349.582 511.304 349.821C511.561 415.09 508.148 537.418 492.402 600.788L492.338 600.949ZM614.698 109.448C610.254 119.849 600.788 171.884 557.446 202.281C548.978 208.205 533.554 210.331 523.25 210.62C522.784 205.556 521.813 200.551 520.352 195.68C519.708 193.683 518.742 191.333 518.162 189.916C518.102 189.798 518.003 189.705 517.883 189.651C517.762 189.597 517.626 189.586 517.498 189.62C517.37 189.654 517.258 189.73 517.18 189.837C517.101 189.943 517.062 190.073 517.068 190.206C518.839 204.309 519.128 199.318 521.06 212.069C521.06 212.069 526.373 248.037 526.567 249.808C529.046 272.348 530.624 338.487 528.112 347.664C519.221 347.872 510.332 347.182 501.579 345.603C498.134 334.107 464.421 167.118 463.68 138.911C472.213 140.457 505.121 152.306 532.685 153.176C557.285 153.916 594.283 101.656 594.605 101.656C597.149 101.205 611.188 107.162 614.73 109.287L614.698 109.448ZM625.485 85.9742C625.227 90.128 620.397 92.9294 616.823 95.119C615.567 95.924 612.734 105.487 612.38 106.84C607.928 104.761 603.358 102.944 598.695 101.398C601.915 96.5036 604.716 93.9276 603.492 92.7684C601.271 90.7398 597.052 88.0028 599.242 85.7166C599.512 85.7754 599.772 85.873 600.015 86.0064C603.074 87.4554 605.521 91.3838 606.841 88.9688C607.431 86.1311 608.239 83.3429 609.256 80.629C610.963 76.6684 612.025 77.409 611.607 81.273C611.242 83.914 610.583 86.5061 609.643 89.001C609.532 89.3511 609.564 89.731 609.733 90.0571C609.902 90.3832 610.194 90.6288 610.544 90.7398C610.894 90.8508 611.274 90.8182 611.6 90.6491C611.926 90.48 612.172 90.1883 612.283 89.8382C613.087 86.9889 614.29 84.2679 615.857 81.756C617.435 79.4376 619.335 78.858 619.27 80.4358C618.77 83.2643 617.672 85.9537 616.05 88.3248C615.635 88.9032 615.38 89.5806 615.31 90.289C615.258 90.5898 615.311 90.8993 615.462 91.165C615.612 91.4306 615.85 91.636 616.134 91.746C616.419 91.8561 616.733 91.8642 617.023 91.7688C617.313 91.6734 617.561 91.4804 617.725 91.2228C618.693 89.8708 619.77 88.6 620.945 87.4232C622.845 85.5556 625.614 84.2676 625.517 85.8132L625.485 85.9742Z" fill="black"/>
<path d="M262.849 88.4858C264.169 91.4804 271.382 89.6128 269.965 88.0994C269.862 87.9971 269.723 87.9397 269.579 87.9397C269.434 87.9397 269.295 87.9971 269.192 88.0994C268.763 88.2373 268.301 88.2373 267.872 88.0994C266.993 87.9734 266.137 87.724 265.328 87.3588V75.2516C265.298 75.125 265.226 75.0125 265.123 74.9319C265.021 74.8514 264.895 74.8076 264.765 74.8076C264.635 74.8076 264.508 74.8514 264.406 74.9319C264.304 75.0125 264.232 75.125 264.201 75.2516C263.045 78.7688 262.554 82.4704 262.752 86.1674C262.671 86.9407 262.704 87.7218 262.849 88.4858ZM253.511 80.5002C253.511 79.6308 253.511 78.697 253.318 77.892C253.254 77.5328 253.055 77.2119 252.761 76.996C252.467 76.7801 252.101 76.6858 251.74 76.7328C251.557 76.76 251.381 76.8237 251.223 76.92C251.066 77.0162 250.929 77.1431 250.821 77.2932C250.712 77.4432 250.636 77.6134 250.594 77.7937C250.553 77.974 250.548 78.1607 250.581 78.3428C250.581 78.9224 250.581 79.5986 250.742 80.6934C250.754 80.8752 250.803 81.0527 250.884 81.2159C250.965 81.379 251.078 81.5245 251.215 81.6441C251.353 81.7637 251.513 81.8551 251.686 81.9129C251.858 81.9708 252.041 81.994 252.223 81.9814C252.405 81.9687 252.582 81.9203 252.745 81.839C252.908 81.7577 253.054 81.6451 253.174 81.5075C253.293 81.37 253.385 81.2102 253.442 81.0374C253.5 80.8645 253.524 80.682 253.511 80.5002ZM275.246 80.2748C275.246 80.642 275.392 80.9942 275.651 81.2538C275.911 81.5135 276.263 81.6594 276.63 81.6594C276.998 81.6594 277.35 81.5135 277.609 81.2538C277.869 80.9942 278.015 80.642 278.015 80.2748V78.8258C278.199 78.5644 278.29 78.2483 278.272 77.929C278.254 77.6096 278.128 77.3058 277.915 77.067C277.702 76.8281 277.415 76.6683 277.1 76.6134C276.785 76.5586 276.461 76.612 276.18 76.765C274.924 77.57 275.246 79.18 275.246 80.2748ZM268.741 100.174C267.584 100.819 266.365 101.348 265.103 101.752C264.394 101.752 264.233 102.75 265.103 102.847C265.921 103.258 266.828 103.457 267.743 103.427C268.677 103.316 269.574 102.995 270.366 102.487C271.158 101.98 271.825 101.299 272.316 100.496C272.714 99.6421 272.88 98.6983 272.799 97.7594C272.829 97.6142 272.799 97.4631 272.718 97.3393C272.636 97.2155 272.509 97.1292 272.364 97.0993C272.219 97.0694 272.068 97.0984 271.944 97.1799C271.82 97.2614 271.734 97.3888 271.704 97.534C270.825 98.5286 269.83 99.415 268.741 100.174ZM448.482 102.364C450.929 103.137 454.922 103.652 456.628 101.72C458.335 99.788 457.401 94.7648 457.208 92.6396C456.806 88.4663 455.898 84.3574 454.503 80.4036C454.473 80.2584 454.387 80.131 454.263 80.0495C454.139 79.968 453.988 79.939 453.843 79.9689C453.698 79.9988 453.571 80.0851 453.489 80.2089C453.408 80.3327 453.379 80.4838 453.408 80.629C453.408 81.6272 453.859 86.5538 453.956 87.8096C454.572 91.9112 454.788 96.0631 454.6 100.207C453.878 100.695 453.05 101.004 452.185 101.108C448.965 101.656 448.224 100.883 448.063 101.72C448.044 101.79 448.04 101.863 448.052 101.935C448.063 102.006 448.089 102.075 448.129 102.136C448.168 102.196 448.22 102.248 448.281 102.287C448.342 102.327 448.41 102.353 448.482 102.364ZM443.04 81.1442C443.04 80.1138 440.078 79.5986 438.146 80.0172C436.214 80.4358 433.573 82.4644 434.314 83.2372C435.054 84.01 442.911 82.078 443.04 81.1442ZM440.915 88.84V91.6092C440.915 91.9764 441.061 92.3286 441.32 92.5882C441.58 92.8479 441.932 92.9938 442.299 92.9938C442.667 92.9938 443.019 92.8479 443.279 92.5882C443.538 92.3286 443.684 91.9764 443.684 91.6092V88.9366C443.693 88.5662 443.556 88.2071 443.303 87.9362C443.051 87.6653 442.702 87.5043 442.332 87.4876C441.967 87.4872 441.616 87.6276 441.352 87.8795C441.088 88.1314 440.931 88.4755 440.915 88.84ZM468.381 82.4644C468.639 82.078 467.609 80.0172 465.161 79.2444C462.714 78.4716 460.847 79.6952 460.847 80.2748C460.847 80.8544 467.898 83.1728 468.381 82.4644ZM439.53 109.255C438.79 109.48 438.79 114.117 443.201 115.437C445.455 116.081 448.514 115.727 448.578 114.922C448.643 114.117 444.199 113.151 442.75 112.153C441.301 111.155 440.142 109.062 439.53 109.255ZM463.97 86.9402C463.788 86.9359 463.607 86.9675 463.438 87.0331C463.268 87.0988 463.113 87.1972 462.981 87.3228C462.85 87.4484 462.744 87.5987 462.671 87.7651C462.597 87.9315 462.557 88.1107 462.553 88.2926V91.0296C462.604 91.3646 462.773 91.6702 463.03 91.8911C463.287 92.1119 463.615 92.2334 463.954 92.2334C464.293 92.2334 464.62 92.1119 464.877 91.8911C465.134 91.6702 465.304 91.3646 465.355 91.0296V88.357C465.359 88.1724 465.326 87.9889 465.259 87.8172C465.191 87.6455 465.09 87.489 464.961 87.357C464.832 87.225 464.678 87.1201 464.507 87.0485C464.337 86.977 464.155 86.9401 463.97 86.9402Z" fill="black"/>
</svg>
