<svg width="25" height="24" viewBox="0 0 25 24" fill="none" xmlns="http://www.w3.org/2000/svg">
<path d="M22.9561 15.94C22.9561 18.73 20.7161 20.99 17.9261 21H17.9161H8.00605C5.22605 21 2.95605 18.75 2.95605 15.96V15.95C2.95605 15.95 2.96205 11.524 2.97005 9.298C2.97105 8.88 3.45105 8.646 3.77805 8.906C6.15405 10.791 10.4031 14.228 10.4561 14.273C11.1661 14.842 12.0661 15.163 12.9861 15.163C13.9061 15.163 14.8061 14.842 15.5161 14.262C15.5691 14.227 19.7231 10.893 22.1351 8.977C22.4631 8.716 22.9451 8.95 22.9461 9.367C22.9561 11.576 22.9561 15.94 22.9561 15.94Z" fill="white"/>
<path d="M22.4319 5.674C21.5659 4.042 19.8619 3 17.9859 3H8.00594C6.12994 3 4.42594 4.042 3.55994 5.674C3.36594 6.039 3.45794 6.494 3.78094 6.752L11.2059 12.691C11.7259 13.111 12.3559 13.32 12.9859 13.32C12.9899 13.32 12.9929 13.32 12.9959 13.32C12.9989 13.32 13.0029 13.32 13.0059 13.32C13.6359 13.32 14.2659 13.111 14.7859 12.691L22.2109 6.752C22.5339 6.494 22.6259 6.039 22.4319 5.674Z" fill="white"/>
</svg>
