<svg width="25" height="24" viewBox="0 0 25 24" fill="none" xmlns="http://www.w3.org/2000/svg">
<path fill-rule="evenodd" clip-rule="evenodd" d="M9.48768 2.93677C11.6725 1.66727 14.3581 1.68946 16.5224 2.99489C18.6655 4.32691 19.968 6.70418 19.9559 9.26144C19.906 11.8019 18.5093 14.19 16.7635 16.0361C15.7559 17.1064 14.6287 18.0528 13.4049 18.856C13.2789 18.9289 13.1408 18.9777 12.9975 19C12.8597 18.9941 12.7254 18.9534 12.6068 18.8814C10.7385 17.6746 9.09939 16.134 7.76839 14.334C6.65464 12.8314 6.02189 11.016 5.95606 9.13442C5.95461 6.57225 7.30282 4.20627 9.48768 2.93677ZM10.7503 10.1948C11.1178 11.1008 11.9853 11.6918 12.9478 11.6918C13.5783 11.6964 14.1844 11.4438 14.631 10.9905C15.0776 10.5371 15.3276 9.92063 15.3254 9.27838C15.3288 8.29803 14.7516 7.41231 13.8634 7.03477C12.9752 6.65723 11.9512 6.86234 11.2695 7.55434C10.5878 8.24634 10.3828 9.28872 10.7503 10.1948Z" fill="white"/>
<ellipse opacity="0.4" cx="12.9561" cy="21" rx="5" ry="1" fill="white"/>
</svg>
